# xmcd
#
# Track frame offsets: 
#        150
#        11105
#        25210
#        36525
#        54865
#        71687
#        86985
#        98815
#        113263
#        128775
#        145366
#        164104
#        178769
#        192881
#
# Disc length: 2770 seconds
#
# Revision: 2
# Processed by: cddbd v1.5.2PL0 Copyright (c) Steve Scherf et al.
# Submitted via: ExactAudioCopyFreeDBPlugin 1.0
#
DISCID=c60ad00e
DTITLE=Various Artist - Country Fever
DYEAR=2008
DGENRE=Country
TTITLE0=Willie Nelson - On The Road Again
TTITLE1=Billy Sherill, Tammy Wynette - Stand By Your Man
TTITLE2=Johnny Cash - Folsom Prison
TTITLE3=Alan Eugene Jackson, Jim Mc Bride - Chattahoochee
TTITLE4=Hank Williams - Jambalaya
TTITLE5=Mark Bender, Steve Summer and Pete Winter - The Rose Of The Coun
TTITLE5=try
TTITLE6=Mel Mc Daniel - Louisiana Saturday Night
TTITLE7=Mark Bender, Steve Summer and Pete Winter - Nashville Nights
TTITLE8=Mark Bender, Steve Summer and Pete Winter - Rockin' Through The 
TTITLE8=Country
TTITLE9=Daniel T. Coates - Grandpa's House
TTITLE10=Roger Bowling - Blanket On The Ground
TTITLE11=Larry E. Williams - Let Your Love Flow
TTITLE12=Mark Bender and Chris Schultheis - Please Give Me A Call
TTITLE13=W. Bill Danoff, John Denver, Tarry Nivert - Take Me Home, Cou
TTITLE13=ntry Roads
EXTD=
EXTT0=
EXTT1=
EXTT2=
EXTT3=
EXTT4=
EXTT5=
EXTT6=
EXTT7=
EXTT8=
EXTT9=
EXTT10=
EXTT11=
EXTT12=
EXTT13=
PLAYORDER=
